<svg width="31" height="31" viewBox="0 0 31 31" fill="none" xmlns="http://www.w3.org/2000/svg">
<mask id="path-1-inside-1_5_90" fill="white">
<path d="M24.8717 4.6496C24.6461 4.6496 24.41 4.72541 24.2382 4.8973L23.8804 5.28339L23.7148 5.14587C23.6739 5.10316 23.6248 5.06916 23.5704 5.04594C23.5161 5.02272 23.4576 5.01074 23.3985 5.01074C23.3393 5.01074 23.2808 5.02272 23.2265 5.04594C23.1721 5.06916 23.123 5.10316 23.0821 5.14587C23.0394 5.18677 23.0055 5.23589 22.9822 5.29028C22.959 5.34466 22.9471 5.40319 22.9471 5.46233C22.9471 5.52146 22.959 5.57999 22.9822 5.63437C23.0055 5.68876 23.0394 5.73788 23.0821 5.77878L23.2196 5.94449L22.9993 6.16486L22.8337 6.02647C22.7928 5.98375 22.7437 5.94976 22.6893 5.92653C22.6349 5.90331 22.5764 5.89134 22.5173 5.89134C22.4582 5.89134 22.3997 5.90331 22.3454 5.92653C22.291 5.94976 22.2419 5.98375 22.201 6.02647C22.158 6.06739 22.1238 6.11662 22.1004 6.17117C22.0771 6.22572 22.065 6.28445 22.065 6.3438C22.065 6.40315 22.0771 6.46189 22.1004 6.51644C22.1238 6.57099 22.158 6.62021 22.201 6.66113L22.3385 6.82597L22.1728 6.99081C22.066 7.09661 21.9892 7.22899 21.9505 7.37431C21.9118 7.51964 21.9125 7.67266 21.9525 7.81763L18.0976 11.6741C17.3019 10.9777 16.0983 10.1588 14.7933 10.1588C14.2144 10.1588 13.6197 10.3351 13.0311 10.7371C11.7252 11.63 11.9755 12.9831 11.1587 13.7676C10.2423 14.6491 7.73723 13.9386 5.43131 16.2463C3.12539 18.5523 4.1475 21.7423 7.08343 24.5657C8.84393 26.3974 10.7384 27.4851 12.4804 27.4851C13.5298 27.4851 14.5316 27.0867 15.3996 26.2185C17.7055 23.9116 16.9953 21.4074 17.8773 20.4889C18.6615 19.6735 20.0405 19.9503 20.9339 18.6431C22.2442 16.7276 20.9798 14.702 19.97 13.5472L23.8249 9.69077C24.1157 9.76482 24.4232 9.6987 24.6514 9.4704L24.8162 9.30468L24.9819 9.44308C25.0197 9.48604 25.0662 9.52051 25.1183 9.54421C25.1703 9.56791 25.2269 9.58031 25.2841 9.58059C25.408 9.57928 25.5266 9.52962 25.6145 9.44219C25.6572 9.4013 25.6912 9.35218 25.7144 9.29779C25.7376 9.24341 25.7496 9.18488 25.7496 9.12574C25.7496 9.06661 25.7376 9.00808 25.7144 8.9537C25.6912 8.89931 25.6572 8.85019 25.6145 8.80929L25.4771 8.64358L25.6973 8.42321L25.863 8.5616C25.9008 8.60456 25.9473 8.63903 25.9994 8.66273C26.0515 8.68643 26.108 8.69883 26.1652 8.69911C26.2892 8.6978 26.4077 8.64815 26.4956 8.56072C26.5383 8.51982 26.5723 8.4707 26.5955 8.41631C26.6188 8.36193 26.6307 8.3034 26.6307 8.24427C26.6307 8.18513 26.6188 8.12661 26.5955 8.07222C26.5723 8.01783 26.5383 7.96871 26.4956 7.92782L26.3582 7.7621L26.7441 7.40422C26.8259 7.32309 26.8908 7.22656 26.9351 7.1202C26.9794 7.01385 27.0022 6.89976 27.0022 6.78454C27.0022 6.66932 26.9794 6.55524 26.9351 6.44888C26.8908 6.34252 26.8259 6.24599 26.7441 6.16486L25.4762 4.89642C25.3974 4.81646 25.3032 4.75334 25.1993 4.71092C25.0954 4.66849 24.9839 4.64763 24.8717 4.6496ZM24.8162 5.6968C24.8841 5.6968 24.9572 5.70032 25.0092 5.75145C25.0588 5.80344 25.0865 5.87258 25.0865 5.94449C25.0865 6.0164 25.0588 6.08555 25.0092 6.13754L23.2469 7.90049C23.1955 7.95161 23.1264 7.98097 23.0539 7.98247C22.9817 7.98051 22.9129 7.95085 22.8619 7.89961C22.8125 7.84766 22.7849 7.77871 22.7849 7.70701C22.7849 7.63531 22.8125 7.56635 22.8619 7.5144L24.6241 5.75145C24.6752 5.70032 24.7492 5.6968 24.8162 5.6968ZM25.6973 6.57828C25.7652 6.57828 25.8383 6.58092 25.8903 6.63293C25.9402 6.68481 25.968 6.754 25.968 6.82597C25.968 6.89795 25.9402 6.96713 25.8903 7.01901L24.128 8.78197C24.0766 8.83309 24.0075 8.86245 23.9351 8.86395C23.8629 8.86222 23.7942 8.83288 23.743 8.78197C23.6933 8.72998 23.6656 8.66083 23.6656 8.58892C23.6656 8.51701 23.6933 8.44787 23.743 8.39588L25.5052 6.63293C25.5564 6.5818 25.6304 6.57828 25.6973 6.57828ZM14.7933 11.3973C15.6392 11.3973 16.5327 11.972 17.2164 12.5547L14.2699 15.5023C14.2047 15.4953 14.1448 15.4741 14.0779 15.4741C13.5234 15.476 12.9922 15.6972 12.6002 16.0894C12.2081 16.4816 11.987 17.013 11.9852 17.5677C11.987 18.1223 12.2081 18.6537 12.6002 19.0459C12.9922 19.4381 13.5234 19.6593 14.0779 19.6612C14.6323 19.6593 15.1635 19.4381 15.5556 19.0459C15.9476 18.6537 16.1687 18.1223 16.1705 17.5677C16.1705 17.5007 16.1494 17.4407 16.1432 17.3746L19.1162 14.4005C19.881 15.2873 20.7445 16.7135 19.9154 17.9264C19.6457 18.3196 19.3065 18.4641 18.7038 18.6695C18.1734 18.8502 17.5099 19.0706 16.9688 19.6338C16.375 20.2517 16.2428 21.0645 16.0877 21.9204C15.8921 22.9949 15.6727 24.2096 14.5184 25.3634C13.9122 25.9699 13.2443 26.2722 12.4804 26.2722C11.1437 26.2722 9.54003 25.3502 7.96456 23.7107L7.93725 23.6833C6.31156 22.1222 5.3899 20.525 5.37668 19.194C5.36787 18.4174 5.67098 17.7439 6.28513 17.1278C7.43941 15.9731 8.65361 15.7527 9.72683 15.5579C10.5824 15.4027 11.3957 15.2432 12.0125 14.6491C12.5711 14.1131 12.7923 13.4653 12.9764 12.9408C13.1879 12.3396 13.3201 12.0293 13.7201 11.7561C14.062 11.5225 14.4162 11.3973 14.7933 11.3973ZM8.98315 19.0001C8.91087 19.002 8.8421 19.0317 8.79106 19.0829L8.24036 19.6347C8.18988 19.6863 8.16161 19.7556 8.16161 19.8278C8.16161 19.8999 8.18988 19.9692 8.24036 20.0208L11.6265 23.4083C11.7305 23.5115 11.9085 23.5115 12.0125 23.4083L12.5632 22.8574C12.613 22.8057 12.6408 22.7366 12.6408 22.6648C12.6408 22.593 12.613 22.5239 12.5632 22.4722L9.17612 19.0838C9.12508 19.0326 9.05631 19.0029 8.98403 19.0009L8.98315 19.0001Z"/>
</mask>
<path d="M24.8717 4.6496C24.6461 4.6496 24.41 4.72541 24.2382 4.8973L23.8804 5.28339L23.7148 5.14587C23.6739 5.10316 23.6248 5.06916 23.5704 5.04594C23.5161 5.02272 23.4576 5.01074 23.3985 5.01074C23.3393 5.01074 23.2808 5.02272 23.2265 5.04594C23.1721 5.06916 23.123 5.10316 23.0821 5.14587C23.0394 5.18677 23.0055 5.23589 22.9822 5.29028C22.959 5.34466 22.9471 5.40319 22.9471 5.46233C22.9471 5.52146 22.959 5.57999 22.9822 5.63437C23.0055 5.68876 23.0394 5.73788 23.0821 5.77878L23.2196 5.94449L22.9993 6.16486L22.8337 6.02647C22.7928 5.98375 22.7437 5.94976 22.6893 5.92653C22.6349 5.90331 22.5764 5.89134 22.5173 5.89134C22.4582 5.89134 22.3997 5.90331 22.3454 5.92653C22.291 5.94976 22.2419 5.98375 22.201 6.02647C22.158 6.06739 22.1238 6.11662 22.1004 6.17117C22.0771 6.22572 22.065 6.28445 22.065 6.3438C22.065 6.40315 22.0771 6.46189 22.1004 6.51644C22.1238 6.57099 22.158 6.62021 22.201 6.66113L22.3385 6.82597L22.1728 6.99081C22.066 7.09661 21.9892 7.22899 21.9505 7.37431C21.9118 7.51964 21.9125 7.67266 21.9525 7.81763L18.0976 11.6741C17.3019 10.9777 16.0983 10.1588 14.7933 10.1588C14.2144 10.1588 13.6197 10.3351 13.0311 10.7371C11.7252 11.63 11.9755 12.9831 11.1587 13.7676C10.2423 14.6491 7.73723 13.9386 5.43131 16.2463C3.12539 18.5523 4.1475 21.7423 7.08343 24.5657C8.84393 26.3974 10.7384 27.4851 12.4804 27.4851C13.5298 27.4851 14.5316 27.0867 15.3996 26.2185C17.7055 23.9116 16.9953 21.4074 17.8773 20.4889C18.6615 19.6735 20.0405 19.9503 20.9339 18.6431C22.2442 16.7276 20.9798 14.702 19.97 13.5472L23.8249 9.69077C24.1157 9.76482 24.4232 9.6987 24.6514 9.4704L24.8162 9.30468L24.9819 9.44308C25.0197 9.48604 25.0662 9.52051 25.1183 9.54421C25.1703 9.56791 25.2269 9.58031 25.2841 9.58059C25.408 9.57928 25.5266 9.52962 25.6145 9.44219C25.6572 9.4013 25.6912 9.35218 25.7144 9.29779C25.7376 9.24341 25.7496 9.18488 25.7496 9.12574C25.7496 9.06661 25.7376 9.00808 25.7144 8.9537C25.6912 8.89931 25.6572 8.85019 25.6145 8.80929L25.4771 8.64358L25.6973 8.42321L25.863 8.5616C25.9008 8.60456 25.9473 8.63903 25.9994 8.66273C26.0515 8.68643 26.108 8.69883 26.1652 8.69911C26.2892 8.6978 26.4077 8.64815 26.4956 8.56072C26.5383 8.51982 26.5723 8.4707 26.5955 8.41631C26.6188 8.36193 26.6307 8.3034 26.6307 8.24427C26.6307 8.18513 26.6188 8.12661 26.5955 8.07222C26.5723 8.01783 26.5383 7.96871 26.4956 7.92782L26.3582 7.7621L26.7441 7.40422C26.8259 7.32309 26.8908 7.22656 26.9351 7.1202C26.9794 7.01385 27.0022 6.89976 27.0022 6.78454C27.0022 6.66932 26.9794 6.55524 26.9351 6.44888C26.8908 6.34252 26.8259 6.24599 26.7441 6.16486L25.4762 4.89642C25.3974 4.81646 25.3032 4.75334 25.1993 4.71092C25.0954 4.66849 24.9839 4.64763 24.8717 4.6496ZM24.8162 5.6968C24.8841 5.6968 24.9572 5.70032 25.0092 5.75145C25.0588 5.80344 25.0865 5.87258 25.0865 5.94449C25.0865 6.0164 25.0588 6.08555 25.0092 6.13754L23.2469 7.90049C23.1955 7.95161 23.1264 7.98097 23.0539 7.98247C22.9817 7.98051 22.9129 7.95085 22.8619 7.89961C22.8125 7.84766 22.7849 7.77871 22.7849 7.70701C22.7849 7.63531 22.8125 7.56635 22.8619 7.5144L24.6241 5.75145C24.6752 5.70032 24.7492 5.6968 24.8162 5.6968ZM25.6973 6.57828C25.7652 6.57828 25.8383 6.58092 25.8903 6.63293C25.9402 6.68481 25.968 6.754 25.968 6.82597C25.968 6.89795 25.9402 6.96713 25.8903 7.01901L24.128 8.78197C24.0766 8.83309 24.0075 8.86245 23.9351 8.86395C23.8629 8.86222 23.7942 8.83288 23.743 8.78197C23.6933 8.72998 23.6656 8.66083 23.6656 8.58892C23.6656 8.51701 23.6933 8.44787 23.743 8.39588L25.5052 6.63293C25.5564 6.5818 25.6304 6.57828 25.6973 6.57828ZM14.7933 11.3973C15.6392 11.3973 16.5327 11.972 17.2164 12.5547L14.2699 15.5023C14.2047 15.4953 14.1448 15.4741 14.0779 15.4741C13.5234 15.476 12.9922 15.6972 12.6002 16.0894C12.2081 16.4816 11.987 17.013 11.9852 17.5677C11.987 18.1223 12.2081 18.6537 12.6002 19.0459C12.9922 19.4381 13.5234 19.6593 14.0779 19.6612C14.6323 19.6593 15.1635 19.4381 15.5556 19.0459C15.9476 18.6537 16.1687 18.1223 16.1705 17.5677C16.1705 17.5007 16.1494 17.4407 16.1432 17.3746L19.1162 14.4005C19.881 15.2873 20.7445 16.7135 19.9154 17.9264C19.6457 18.3196 19.3065 18.4641 18.7038 18.6695C18.1734 18.8502 17.5099 19.0706 16.9688 19.6338C16.375 20.2517 16.2428 21.0645 16.0877 21.9204C15.8921 22.9949 15.6727 24.2096 14.5184 25.3634C13.9122 25.9699 13.2443 26.2722 12.4804 26.2722C11.1437 26.2722 9.54003 25.3502 7.96456 23.7107L7.93725 23.6833C6.31156 22.1222 5.3899 20.525 5.37668 19.194C5.36787 18.4174 5.67098 17.7439 6.28513 17.1278C7.43941 15.9731 8.65361 15.7527 9.72683 15.5579C10.5824 15.4027 11.3957 15.2432 12.0125 14.6491C12.5711 14.1131 12.7923 13.4653 12.9764 12.9408C13.1879 12.3396 13.3201 12.0293 13.7201 11.7561C14.062 11.5225 14.4162 11.3973 14.7933 11.3973ZM8.98315 19.0001C8.91087 19.002 8.8421 19.0317 8.79106 19.0829L8.24036 19.6347C8.18988 19.6863 8.16161 19.7556 8.16161 19.8278C8.16161 19.8999 8.18988 19.9692 8.24036 20.0208L11.6265 23.4083C11.7305 23.5115 11.9085 23.5115 12.0125 23.4083L12.5632 22.8574C12.613 22.8057 12.6408 22.7366 12.6408 22.6648C12.6408 22.593 12.613 22.5239 12.5632 22.4722L9.17612 19.0838C9.12508 19.0326 9.05631 19.0029 8.98403 19.0009L8.98315 19.0001Z" stroke="#E5DBD0" stroke-width="1.44988" mask="url(#path-1-inside-1_5_90)"/>
</svg>
